<!DOCTYPE svg PUBLIC "-//W3C//DTD SVG 1.1//EN" "http://www.w3.org/Graphics/SVG/1.1/DTD/svg11.dtd">
<!-- Uploaded to: SVG Repo, www.svgrepo.com, Transformed by: SVG Repo Mixer Tools -->
<svg version="1.1" id="Capa_1" xmlns="http://www.w3.org/2000/svg" xmlns:xlink="http://www.w3.org/1999/xlink" viewBox="0 0 58 58" xml:space="preserve" width="64px" height="64px" fill="#000000">
<g id="SVGRepo_bgCarrier" stroke-width="0"/>
<g id="SVGRepo_tracerCarrier" stroke-linecap="round" stroke-linejoin="round"/>
<g id="SVGRepo_iconCarrier"> <g> <polygon style="fill:#ff9d4d;" points="0,0 0,10 0,48 0,58 10,48 10,10 "/> <polygon style="fill:#cd640e;" points="0,58 10,58 48,58 58,58 48,48 10,48 "/> <polygon style="fill:#cd640e;" points="0,0 10,0 48,0 58,0 48,10 10,10 "/> <polygon style="fill:#ff9d4d;" points="58,0 58,10 58,48 58,58 48,48 48,10 "/> <g> <circle style="fill:#7d7d7d;" cx="3" cy="50" r="1"/> <circle style="fill:#7d7d7d;" cx="7" cy="46" r="1"/> <circle style="fill:#7d7d7d;" cx="3" cy="8" r="1"/> <circle style="fill:#7d7d7d;" cx="7" cy="12" r="1"/> <circle style="fill:#7d7d7d;" cx="50" cy="55" r="1"/> <circle style="fill:#7d7d7d;" cx="46" cy="51" r="1"/> <circle style="fill:#7d7d7d;" cx="8" cy="55" r="1"/> <circle style="fill:#7d7d7d;" cx="12" cy="51" r="1"/> <circle style="fill:#7d7d7d;" cx="50" cy="3" r="1"/> <circle style="fill:#7d7d7d;" cx="46" cy="7" r="1"/> <circle style="fill:#7d7d7d;" cx="8" cy="3" r="1"/> <circle style="fill:#7d7d7d;" cx="12" cy="7" r="1"/> <circle style="fill:#7d7d7d;" cx="55" cy="50" r="1"/> <circle style="fill:#7d7d7d;" cx="51" cy="46" r="1"/> <circle style="fill:#7d7d7d;" cx="55" cy="8" r="1"/> <circle style="fill:#7d7d7d;" cx="51" cy="12" r="1"/> </g> <rect x="10" y="10" style="fill:#ff7b0f;" width="38" height="38"/> <g> <rect x="43" y="10" style="fill:#86440e;" width="2" height="38"/> <rect x="33" y="10" style="fill:#86440e;" width="2" height="38"/> <rect x="13" y="10" style="fill:#86440e;" width="2" height="38"/> <rect x="23" y="10" style="fill:#86440e;" width="2" height="38"/> </g> </g> </g>
</svg>